<svg id="Layer_1" data-name="Layer 1" xmlns="http://www.w3.org/2000/svg" viewBox="0 0 1814.4 777.6"><defs><style>.cls-1{fill:#43bddf;}.cls-2,.cls-3{fill:#0b2e44;}.cls-3{font-size:139.45px;font-family:MullerNextWideTrial-ExtraBold, Muller Next Wide Trial;font-weight:800;}.cls-4{letter-spacing:0em;}.cls-5{letter-spacing:0em;}.cls-6{letter-spacing:-0.01em;}.cls-7{letter-spacing:-0.07em;}.cls-8{letter-spacing:0em;}</style></defs><rect class="cls-1" x="-30.24" y="-21.6" width="1874.88" height="820.8"/><polygon class="cls-2" points="510.08 113.08 510.08 113.05 390.14 45.64 266.3 115.24 266.3 115.35 224.6 139.01 224.6 96.38 104.34 96.38 104.34 207.24 65.36 229.35 65.36 342.26 390.14 159.72 390.14 159.72 714.92 342.26 714.92 229.28 510.08 113.08"/><polygon class="cls-2" points="390.14 571.61 390.14 571.61 65.36 389.06 65.36 700.04 185.62 700.04 185.62 570.74 390.14 685.69 390.14 685.69 594.65 570.74 594.65 700.04 714.92 700.04 714.92 389.06 390.14 571.61"/><polygon class="cls-2" points="714.92 365.29 390.14 186.78 390.14 186.78 316.19 227.42 390.14 268.07 390.14 268.07 556.03 359.25 514.12 380.33 394.48 314.58 390.14 312.19 274.21 248.48 190.73 294.91 390.14 404.51 394.48 406.9 430.13 426.5 390.14 450.12 390.14 450.12 152.02 317.66 65.36 365.29 390.14 546.69 390.14 546.69 714.92 365.29"/><text class="cls-3" transform="translate(802.54 386.46) scale(1.04 1)">3M</text><text class="cls-3" transform="translate(802.54 514.32) scale(1.04 1)">P<tspan class="cls-4" x="110.72" y="0">R</tspan><tspan class="cls-5" x="225.48" y="0">OPE</tspan><tspan class="cls-6" x="568.38" y="0">R</tspan><tspan x="682.03" y="0">T</tspan><tspan class="cls-7" x="783.13" y="0">Y</tspan><tspan x="891.2" y="0"> </tspan></text><text class="cls-3" transform="translate(802.54 642.21) scale(1.04 1)">G<tspan class="cls-4" x="111.56" y="0">R</tspan><tspan class="cls-5" x="226.32" y="0">O</tspan><tspan class="cls-8" x="355.31" y="0">U</tspan><tspan x="474.95" y="0">P</tspan></text><path class="cls-1" d="M1124.64,498.3a1.5,1.5,0,0,0,0-3,1.5,1.5,0,0,0,0,3Z"/></svg>